HIERARCHY
ROOT ui
{
	 OFFSET 0 0 0
	 CHANNELS 3 XPosition YPosition Z Position
	 EndSite
	 {
	 OFFSET 0 -1 0
	 }
}
ROOT li
{
	 OFFSET 0 0 0
	 CHANNELS 3 XPosition YPosition Z Position
	 EndSite
	 {
	 OFFSET 0 -1 0
	 }
}
ROOT ul
{
	 OFFSET 0 0 0
	 CHANNELS 3 XPosition YPosition Z Position
	 EndSite
	 {
	 OFFSET 0 -1 0
	 }
}
ROOT ll
{
	 OFFSET 0 0 0
	 CHANNELS 3 XPosition YPosition Z Position
	 EndSite
	 {
	 OFFSET 0 -1 0
	 }
}
ROOT tt
{
	 OFFSET 0 0 0
	 CHANNELS 3 XPosition YPosition Z Position
	 EndSite
	 {
	 OFFSET 0 -1 0
	 }
}
ROOT tb
{
	 OFFSET 0 0 0
	 CHANNELS 3 XPosition YPosition Z Position
	 EndSite
	 {
	 OFFSET 0 -1 0
	 }
}
ROOT td
{
	 OFFSET 0 0 0
	 CHANNELS 3 XPosition YPosition Z Position
	 EndSite
	 {
	 OFFSET 0 -1 0
	 }
}
ROOT v
{
	 OFFSET 0 0 0
	 CHANNELS 3 XPosition YPosition Z Position
	 EndSite
	 {
	 OFFSET 0 -1 0
	 }
}
ROOT bn
{
	 OFFSET 0 0 0
	 CHANNELS 3 XPosition YPosition Z Position
	 EndSite
	 {
	 OFFSET 0 -1 0
	 }
}
MOTION
Frames: 29
Frame Time: 0.002
-0.004607673168182373	-0.0011275290250778198	0		0.4412356262207031	-2.427657470703125	0		-0.9756724853515625	0.22361038208007813	0		-0.5059149475097656	-2.756447509765625	0		1.6125260009765625	-0.721724365234375	0		3.1350400390625	0.06065323257446289	0		4.45845068359375	0.29056829833984377	0		5.68758935546875	0.13129981994628906	0		-0.21544439697265624	5.93470166015625	0		
0.042002365112304686	-0.005847320079803466	0		0.46697732543945314	-2.430975341796875	0		-0.976991943359375	0.22371865844726563	0		-0.5461473999023437	-2.758608154296875	0		1.6171392822265624	-0.7276068115234375	0		3.113640380859375	0.0563123893737793	0		4.45712841796875	0.2909229736328125	0		5.68666015625	0.13200355529785157	0		-0.21800448608398437	5.93586279296875	0		
-0.007238968849182129	-8.268049955368042E-4	0		0.4507027587890625	-2.434531494140625	0		-0.9742529296875	0.22774691772460937	0		-0.5246481323242187	-2.775900390625	0		1.6158524169921875	-0.7273799438476563	0		3.112315673828125	0.05661164093017578	0		4.459646484375	0.28321597290039063	0		5.69281494140625	0.12722689819335936	0		-0.33684820556640627	5.92412451171875	0		
0.028477561950683593	6.493970155715943E-4	0		0.45360284423828123	-2.429435791015625	0		-1.001592041015625	0.22731362915039063	0		-0.558724609375	-2.77018505859375	0		1.580744140625	-0.717538330078125	0		3.140048583984375	0.05939117813110351	0		4.4555361328125	0.29564129638671877	0		5.6977822265625	0.15366950988769532	0		-0.20410562133789062	5.9428271484375	0		
-0.0027151520252227785	0.006335719108581543	0		0.476350830078125	-2.43469873046875	0		-0.9418837280273438	0.22730487060546875	0		-0.499126708984375	-2.785167724609375	0		1.613326904296875	-0.7269207153320313	0		3.125687744140625	0.05593861770629883	0		4.45626806640625	0.29798757934570314	0		5.696869140625	0.15443923950195312	0		-0.20767430114746094	5.94499658203125	0		
0.014908379554748535	-8.602219820022583E-4	0		0.46434951782226563	-2.42833056640625	0		-0.9781380615234375	0.22802581787109374	0		-0.5382658081054688	-2.78736767578125	0		1.612120361328125	-0.7266858520507813	0		3.1084580078125	0.057545589447021483	0		4.45189697265625	0.29243649291992185	0		5.6959853515625	0.155233642578125	0		-0.22343177795410157	5.9353828125	0		
-0.007354284763336182	-0.004337376117706299	0		0.4690633544921875	-2.441263671875	0		-0.9484224243164062	0.22355894470214843	0		-0.5094273071289063	-2.794790283203125	0		1.6078973388671876	-0.7303919677734375	0		3.1031533203125	0.051945259094238284	0		4.4458115234375	0.2999306335449219	0		5.69809423828125	0.16976748657226562	0		-0.2249736022949219	5.9355146484375	0		
0.012583335876464844	-5.671830177307129E-4	0		0.443174560546875	-2.435643310546875	0		-1.0164846801757812	0.228843017578125	0		-0.5463463745117187	-2.79203271484375	0		1.60681103515625	-0.7301478271484375	0		3.118016845703125	0.05199480438232422	0		4.4526435546875	0.29920492553710937	0		5.7043740234375	0.16338504028320314	0		-0.21130751037597656	5.9443779296875	0		
0.006615931987762451	0.004670051097869873	0		0.4702662048339844	-2.43596533203125	0		-0.9465675048828125	0.22766412353515625	0		-0.5024662780761718	-2.80571728515625	0		1.615744873046875	-0.733075927734375	0		3.121044677734375	0.0572673110961914	0		4.4476923828125	0.3067034301757813	0		5.70657958984375	0.17796922302246093	0		-0.2127387237548828	5.9445126953125	0		
0.02158437728881836	0.0015385869741439818	0		0.4434869384765625	-2.4333232421875	0		-0.9825521850585938	0.22837495422363283	0		-0.5402554931640625	-2.8049423828125	0		1.6048712158203124	-0.7296438598632813	0		3.1200654296875	0.05761941528320313	0		4.446697265625	0.3071408996582031	0		5.7100302734375	0.15964707946777343	0		-0.21409678649902344	5.944650390625	0		
0.009662047386169433	-1.1060699820518494E-4	0		0.4936246032714844	-2.441039306640625	0		-0.8825596923828125	0.22168287658691407	0		-0.5121256103515625	-2.81433349609375	0		1.6019595947265626	-0.7333489379882813	0		3.119173095703125	0.0579766731262207	0		4.44966455078125	0.3005146789550781	0		5.7153095703125	0.18797914123535156	0		-0.23052777099609376	5.9360576171875	0		
0.003951137065887451	0.0051355910301208495	0		0.43804315185546877	-2.4368818359375	0		-0.9883397827148438	0.22463215637207032	0		-0.5158143310546875	-2.81815478515625	0		1.5950848388671874	-0.73998095703125	0		3.11017724609375	0.047478012084960934	0		4.4408642578125	0.30209970092773436	0		5.71474462890625	0.1888809814453125	0		-0.23170899963378908	5.936201171875	0		
0.013062356948852539	-0.00487644910812378	0		0.4644267883300781	-2.440166015625	0		-0.9849957885742188	0.2286613006591797	0		-0.5085793151855469	-2.83116357421875	0		1.6123114013671875	-0.74603466796875	0		3.09348291015625	0.04911392974853516	0		4.448115234375	0.30139804077148435	0		5.70898779296875	0.153657470703125	0		-0.35001828002929686	5.92440234375	0		
-0.006438409805297852	0.002619407892227173	0		0.4431058044433594	-2.430608642578125	0		-1.001668212890625	0.227046875	0		-0.5039335021972656	-2.825117919921875	0		1.6206580810546876	-0.7499315795898438	0		3.121901611328125	0.0519543342590332	0		4.4515751953125	0.3077552795410156	0		5.7186181640625	0.1662050018310547	0		-0.3500137939453125	5.9235283203125	0		
0.0350268440246582	0.0030531940460205077	0		0.46662249755859375	-2.43483544921875	0		-0.9511994018554687	0.22826817321777343	0		-0.5114423522949219	-2.831857177734375	0		1.611225341796875	-0.7455189819335938	0		3.108285400390625	0.04852163314819336	0		4.44303076171875	0.30930892944335936	0		5.71704443359375	0.19996310424804686	0		-0.2336813507080078	5.93463427734375	0		
-0.014559368133544921	-0.0029258809089660644	0		0.43624789428710936	-2.436122802734375	0		-0.9866779174804687	0.22899325561523437	0		-0.525677001953125	-2.826474609375	0		1.6046544189453125	-0.7531622314453125	0		3.08772705078125	0.044199462890625	0		4.44254296875	0.30970852661132814	0		5.72085498046875	0.18155618286132813	0		-0.2344638977050781	5.9347890625	0		
0.0060996789932250975	8.760330080986023E-4	0		0.4868140869140625	-2.44481640625	0		-0.987096435546875	0.22911174011230467	0		-0.5300140991210938	-2.830263427734375	0		1.601232666015625	-0.7558640747070312	0		3.093195556640625	0.03741514587402344	0		4.44289501953125	0.29707821655273436	0		5.7235205078125	0.19604335021972658	0		-0.23516253662109374	5.93494482421875	0		
-0.02024899673461914	0.0014912019968032837	0		0.4357197265625	-2.43574853515625	0		-0.98745947265625	0.22923214721679688	0		-0.48748480224609375	-2.84486279296875	0		1.6108443603515625	-0.7597968139648438	0		3.098857666015625	0.03861929321289063	0		4.44563232421875	0.3033954772949219	0		5.71980517578125	0.21076736450195313	0		-0.35397747802734375	5.9251396484375	0		
0.010353344917297364	-0.003879523992538452	0		0.46349612426757814	-2.437048583984375	0		-0.9837250366210938	0.23228390502929688	0		-0.5525219116210938	-2.835601318359375	0		1.6105701904296874	-0.7595640869140625	0		3.10265185546875	0.04484614562988281	0		4.4453125	0.30375	0		5.736078125	0.22289299011230468	0		-0.2221621551513672	5.94601025390625	0		
-0.02082474136352539	0.001813338041305542	0		0.463325439453125	-2.43686962890625	0		-0.9880541381835938	0.2294738006591797	0		-0.48782369995117186	-2.844579345703125	0		1.6103319091796875	-0.7593389892578125	0		3.108242919921875	0.03702937316894531	0		4.44503125	0.3040892333984375	0		5.7287578125	0.2238629150390625	0		-0.2226702880859375	5.94616162109375	0		
0.004934476852416992	0.0015227199792861939	0		0.46011248779296876	-2.44064404296875	0		-0.9533048706054688	0.2289922637939453	0		-0.5239649658203125	-2.84482421875	0		1.60707275390625	-0.762070068359375	0		3.108004638671875	0.0373029556274414	0		4.44090380859375	0.31148089599609374	0		5.73572314453125	0.22420663452148437	0		-0.2373184814453125	5.93555078125	0		
-0.019408557891845705	-0.005914006233215332	0		0.45795498657226563	-2.442442138671875	0		-0.9535224609375	0.2291097869873047	0		-0.4962153015136719	-2.853169677734375	0		1.603822021484375	-0.7658104248046875	0		3.094744384765625	0.03478654861450195	0		4.4365810546875	0.30585784912109376	0		5.73553955078125	0.21962477111816406	0		-0.2377371826171875	5.93569384765625	0		
0.0045398430824279785	0.001819558024406433	0		0.4598828125	-2.44031640625	0		-0.988709716796875	0.22982234191894532	0		-0.5503172607421875	-2.853117431640625	0		1.6126092529296876	-0.7687665405273437	0		3.09943798828125	0.027947542190551757	0		4.44923046875	0.29692581176757815	0		5.74321826171875	0.2146791534423828	0		-0.3563017578125	5.92584912109375	0		
0.015410510063171387	0.0037710049152374268	0		0.4747554626464844	-2.44241943359375	0		-0.9807599487304688	0.23679544067382813	0		-0.4686129455566406	-2.86639111328125	0		1.6124697265625	-0.76858056640625	0		3.128322265625	0.03068156433105469	0		4.448298828125	0.31120904541015626	0		5.74187353515625	0.24294015502929686	0		-0.22133091735839844	5.9426728515625	0		
0.009151637077331543	-0.0029928250312805174	0		0.4627809448242188	-2.4360712890625	0		-0.9849739379882813	0.23297183227539062	0		-0.5165203857421875	-2.8564541015625	0		1.6123487548828126	-0.7684070434570313	0		3.0973388671875	0.040420177459716794	0		4.45016748046875	0.3124203186035156	0		5.74890673828125	0.2431244354248047	0		-0.23775608825683595	5.9350732421875	0		
-0.021881319046020507	0.002659174919128418	0		0.45964291381835937	-2.439884521484375	0		-0.954156982421875	0.22954914855957032	0		-0.48873898315429687	-2.86581494140625	0		1.603056884765625	-0.7790926513671875	0		3.094130859375	0.03566343688964844	0		4.440818359375	0.29979571533203125	0		5.74168896484375	0.24384608459472656	0		-0.25315652465820315	5.92644970703125	0		
0.005869894981384277	-0.005698667049407959	0		0.4315790710449219	-2.439283935546875	0		-0.9892645263671875	0.23024505615234375	0		-0.5119323425292969	-2.87331396484375	0		1.602961181640625	-0.7789486083984375	0		3.104764892578125	0.020647666931152345	0		4.43582421875	0.30707122802734377	0		5.7416123046875	0.24421343994140626	0		-0.25238168334960936	5.9255458984375	0		
0.00882214069366455	-0.0026413938999176024	0		0.4673161926269531	-2.450780029296875	0		-0.989365478515625	0.23034251403808595	0		-0.5119983520507813	-2.873211181640625	0		1.60287158203125	-0.778822021484375	0		3.094701904296875	0.0229606990814209	0		4.4437041015625	0.306093994140625	0		5.7410234375	0.27221728515625	0		-0.37171630859375	5.916673828125	0		
-0.02217928123474121	0.0029842529296875	0		0.4345141906738281	-2.434119873046875	0		-1.016334716796875	0.23789491271972657	0		-0.5110408020019531	-2.871131103515625	0		1.6027847900390626	-0.7787138061523438	0		3.098712158203125	0.029007659912109376	0		4.44361181640625	0.306216552734375	0		5.7563818359375	0.23373953247070312	0		-0.3718370361328125	5.9167724609375	0		
